<?xml version="1.0" standalone="no"?>
<!DOCTYPE svg PUBLIC "-//W3C//DTD SVG 20010904//EN"
 "http://www.w3.org/TR/2001/REC-SVG-20010904/DTD/svg10.dtd">
<svg version="1.0" xmlns="http://www.w3.org/2000/svg"
 width="292.000000pt" height="296.000000pt" viewBox="0 0 292.000000 296.000000"
 preserveAspectRatio="xMidYMid meet">

<g transform="translate(0.000000,296.000000) scale(0.100000,-0.100000)"
fill="#000000" stroke="none">
<path d="M1306 2950 c-555 -64 -1031 -441 -1215 -964 -91 -258 -112 -532 -60
-791 61 -305 189 -545 409 -766 209 -210 469 -348 765 -405 123 -24 387 -24
510 0 448 87 823 365 1035 769 127 241 189 558 160 827 -64 608 -456 1093
-1029 1274 -164 52 -404 75 -575 56z m495 -364 c114 -29 151 -46 202 -94 101
-97 100 -260 -3 -362 -78 -79 -173 -98 -292 -59 -278 90 -586 -42 -712 -306
-45 -93 -60 -162 -59 -266 1 -156 62 -298 174 -409 161 -160 373 -211 599
-146 106 31 162 31 227 -2 185 -95 189 -365 7 -464 -70 -38 -190 -67 -334 -80
-145 -13 -272 1 -420 48 -497 155 -827 658 -771 1174 29 267 130 478 321 671
164 167 335 259 575 310 128 27 350 20 486 -15z m606 -602 c99 -60 130 -188
72 -300 -75 -147 -292 -147 -368 -1 -36 71 -39 142 -8 209 54 120 191 161 304
92z m15 -610 c51 -35 86 -93 94 -157 14 -99 -53 -284 -142 -393 -76 -92 -168
-148 -181 -109 -2 6 17 37 42 70 50 67 71 120 61 159 -5 19 -13 26 -31 26 -67
0 -148 68 -170 143 -36 123 3 223 108 277 63 32 161 25 219 -16z"/>
</g>
</svg>
