<?xml version="1.0" standalone="no"?>
<!DOCTYPE svg PUBLIC "-//W3C//DTD SVG 20010904//EN"
 "http://www.w3.org/TR/2001/REC-SVG-20010904/DTD/svg10.dtd">
<svg version="1.0" xmlns="http://www.w3.org/2000/svg"
 width="96.000000pt" height="96.000000pt" viewBox="0 0 96.000000 96.000000"
 preserveAspectRatio="xMidYMid meet">

<g transform="translate(0.000000,96.000000) scale(0.100000,-0.100000)"
fill="#000000" stroke="none">
<path d="M0 480 l0 -480 480 0 480 0 0 480 0 480 -480 0 -480 0 0 -480z m420
40 c30 -76 58 -136 61 -132 4 4 30 67 59 140 l52 132 39 0 39 0 0 -185 0 -185
-30 0 -30 0 0 133 -1 132 -54 -130 c-45 -110 -57 -130 -77 -133 -21 -2 -27 9
-73 125 l-50 128 -3 -128 -3 -127 -29 0 -30 0 0 185 0 185 38 0 37 0 55 -140z"/>
</g>
</svg>
